<svg width="100" height="40" viewBox="0 0 100 40" fill="none" xmlns="http://www.w3.org/2000/svg">
<path d="M13.1218 23.304C12.4498 23.304 11.8738 23.064 11.3938 22.584C10.9138 22.104 10.6738 21.528 10.6738 20.808C10.6738 20.136 10.9138 19.56 11.3938 19.08C11.8738 18.6 12.4498 18.36 13.1218 18.36C13.9378 18.36 14.6098 18.6 15.1858 19.128C15.7618 19.656 16.0498 20.568 16.0498 21.816C16.0498 22.824 15.7618 23.832 15.1378 24.84C14.5138 25.848 13.6498 26.664 12.5458 27.288C11.3938 27.96 10.0498 28.296 8.46581 28.296C7.21781 28.296 5.96981 27.96 4.76981 27.336C3.56981 26.712 2.56181 25.752 1.79381 24.456C0.977812 23.16 0.593812 21.528 0.593812 19.512C0.593812 17.544 1.07381 15.72 2.03381 14.04C2.94581 12.36 4.28981 11.064 6.06581 10.056C7.79381 9.048 9.85781 8.568 12.3058 8.568C14.1778 8.568 15.7618 8.76 16.9618 9.096C18.1618 9.432 19.2178 9.864 20.1298 10.296C20.9458 10.632 21.7618 10.968 22.5778 11.208C23.3938 11.496 24.4018 11.64 25.5538 11.64C27.2338 11.64 28.4818 11.352 29.3938 10.824C30.3058 10.296 30.9298 9.624 31.3138 8.76C31.6498 7.944 31.8418 7.032 31.8898 6.024V5.784C31.8898 4.152 31.4098 3 30.4498 2.376C30.5938 2.664 30.6898 3 30.6898 3.384C30.6898 4.104 30.4498 4.68 29.9698 5.16C29.4418 5.64 28.8658 5.88 28.1458 5.88C27.4738 5.88 26.8978 5.64 26.4178 5.16C25.8898 4.68 25.6498 4.104 25.6498 3.384C25.6498 2.664 25.9858 2.04 26.6098 1.56C27.2338 1.128 28.0498 0.887999 29.1538 0.887999C29.6338 0.887999 30.3538 0.935998 31.3138 1.08C32.2738 1.224 33.2818 1.56 34.2898 1.992C35.2978 2.424 36.2098 3.144 36.9298 4.056C37.6498 4.968 38.0338 6.216 38.0338 7.752C38.0338 10.056 37.2658 12.024 35.7778 13.656C34.2898 15.288 32.1778 16.104 29.5378 16.104C27.3778 16.104 25.6498 15.768 24.2578 15.048C22.8658 14.376 21.5698 13.608 20.4178 12.792C19.4098 12.024 18.3058 11.352 17.2018 10.776C16.0498 10.2 14.6578 9.912 13.0738 9.912C11.2018 9.912 9.71381 10.632 8.60981 12.12C7.50581 13.608 6.92981 15.336 6.92981 17.352C6.92981 19.368 7.45781 20.904 8.46581 21.912C9.47381 22.968 10.6258 23.496 11.8738 23.496L13.1218 23.304ZM27.4258 18.456C28.3378 18.456 29.0098 18.648 29.4898 19.08C29.9218 19.512 30.1618 20.088 30.1618 20.712C30.1618 21.336 29.9218 21.816 29.4898 22.248C29.0578 22.68 28.5298 22.92 27.9058 22.92C27.2818 22.92 26.7538 22.68 26.3218 22.248C25.8898 21.816 25.6498 21.336 25.6498 20.712C25.6498 20.568 25.6498 20.472 25.6978 20.328C25.1218 20.664 24.5458 21.288 24.0178 22.2C23.4898 23.112 23.0098 24.072 22.6258 25.128C22.8178 31.416 23.4898 36.024 24.6898 39H12.2578C13.2658 36.456 13.9378 32.52 14.2258 27.288C16.0978 25.608 17.0578 23.784 17.0578 21.816C17.0578 20.52 16.7698 19.512 16.2418 18.792C15.6658 18.12 14.9938 17.688 14.1778 17.544C14.0338 15.048 13.7458 12.84 13.4098 10.872C14.7058 10.92 15.9058 11.208 16.9138 11.736C17.9218 12.264 18.8818 12.84 19.8898 13.56C20.8018 14.232 21.8098 14.856 22.9138 15.48C22.7218 17.448 22.6258 19.608 22.6258 21.912C23.0578 21.096 23.6338 20.328 24.4498 19.56C25.2658 18.84 26.2258 18.456 27.4258 18.456ZM42.2777 14.712C49.1417 14.712 53.1737 20.616 53.1737 27.144C53.1737 33.624 49.1417 39.528 42.2777 39.528C35.4137 39.528 31.4297 33.624 31.4297 27.144C31.4297 20.616 35.4137 14.712 42.2777 14.712ZM42.2777 37.512C45.1577 37.512 45.9257 32.52 45.9257 27.144C45.9257 21.72 45.1577 16.728 42.2777 16.728C39.3977 16.728 38.6777 21.72 38.6777 27.144C38.6777 32.52 39.3977 37.512 42.2777 37.512ZM75.4378 26.664C75.4378 26.664 75.4858 27.048 75.4858 27.72C75.4858 30.792 74.7658 39.528 66.5578 39.528C59.8858 39.528 55.7578 33.912 55.7578 27.144C55.7578 20.328 59.8858 14.808 66.5578 14.808C71.5498 14.808 74.6218 17.352 74.6218 21.096C74.6218 23.928 72.7018 25.512 70.7338 25.512C69.3898 25.512 67.4218 24.792 67.4218 22.488C67.4218 20.856 68.7178 19.512 70.3498 19.512C71.8858 19.512 73.0858 20.664 73.2778 22.104C73.3738 21.768 73.4698 21.432 73.4698 21.096C73.4698 19.272 71.7898 17.16 69.3898 17.16C66.5578 17.16 63.7258 19.656 63.2938 24.168C63.2458 24.6 63.1978 25.032 63.1978 25.464C63.1978 30.696 66.9898 32.616 69.3418 32.616C72.3658 32.616 74.4778 29.976 75.4378 26.664ZM88.4496 14.712C95.3136 14.712 99.3456 20.616 99.3456 27.144C99.3456 33.624 95.3136 39.528 88.4496 39.528C81.5856 39.528 77.6016 33.624 77.6016 27.144C77.6016 20.616 81.5856 14.712 88.4496 14.712ZM88.4496 37.512C91.3296 37.512 92.0976 32.52 92.0976 27.144C92.0976 21.72 91.3296 16.728 88.4496 16.728C85.5696 16.728 84.8496 21.72 84.8496 27.144C84.8496 32.52 85.5696 37.512 88.4496 37.512Z" fill="white"/>
</svg>
